<svg width="23" height="22" viewBox="0 0 23 22" fill="none" xmlns="http://www.w3.org/2000/svg">
<path d="M20.2913 3.41376C19.7805 2.89992 19.1741 2.49231 18.5066 2.21421C17.8392 1.93611 17.1238 1.79297 16.4013 1.79297C15.6788 1.79297 14.9634 1.93611 14.2959 2.21421C13.6285 2.49231 13.022 2.89992 12.5113 3.41376L11.4513 4.47965L10.3913 3.41376C9.3596 2.37633 7.96032 1.79351 6.50129 1.79351C5.04226 1.79351 3.64298 2.37633 2.61129 3.41376C1.5796 4.45119 1 5.85824 1 7.32539C1 8.79254 1.5796 10.1996 2.61129 11.237L3.67129 12.3029L11.4513 20.1262L19.2313 12.3029L20.2913 11.237C20.8023 10.7234 21.2076 10.1136 21.4842 9.44245C21.7608 8.77128 21.9031 8.0519 21.9031 7.32539C21.9031 6.59889 21.7608 5.8795 21.4842 5.20833C21.2076 4.53716 20.8023 3.92735 20.2913 3.41376V3.41376Z" fill="transparent" stroke="#CF5D00" stroke-width="2" stroke-linecap="round" stroke-linejoin="round"/>
</svg>
