<svg width="26" height="27" viewBox="0 0 26 27" fill="none" xmlns="http://www.w3.org/2000/svg">
<path d="M19 1.46289H7C3.68629 1.46289 1 4.16412 1 7.49626V19.563C1 22.8951 3.68629 25.5964 7 25.5964H19C22.3137 25.5964 25 22.8951 25 19.563V7.49626C25 4.16412 22.3137 1.46289 19 1.46289Z" stroke="#383838" stroke-width="2" stroke-linecap="round" stroke-linejoin="round"/>
<path d="M17.8008 12.7691C17.9489 13.7733 17.7783 14.799 17.3133 15.7001C16.8483 16.6013 16.1126 17.332 15.2108 17.7885C14.309 18.2449 13.287 18.4038 12.2902 18.2425C11.2934 18.0812 10.3725 17.608 9.65864 16.8901C8.94473 16.1722 8.47411 15.2462 8.31371 14.2439C8.15332 13.2416 8.31131 12.2139 8.76522 11.3071C9.21914 10.4002 9.94586 9.66039 10.842 9.1928C11.7382 8.72522 12.7581 8.55369 13.7568 8.7026C14.7755 8.85451 15.7187 9.33184 16.4469 10.0641C17.1751 10.7964 17.6498 11.7447 17.8008 12.7691Z" stroke="#383838" stroke-width="2" stroke-linecap="round" stroke-linejoin="round"/>
<path d="M19.6 6.89258H19.6128" stroke="#383838" stroke-width="2" stroke-linecap="round" stroke-linejoin="round"/>
</svg>
