<svg width="24" height="28" viewBox="0 0 24 28" fill="none" xmlns="http://www.w3.org/2000/svg">
<path d="M4.59129 24.6418L7.46193 15.8576C7.73794 15.013 7.87866 14.1301 7.87886 13.2415V9.88849V9.60745C7.87886 8.95685 8.24371 8.3612 8.82329 8.06561C9.06681 7.94142 9.33628 7.87667 9.60963 7.87667H10.7503C11.0236 7.87667 11.2931 7.94142 11.5366 8.06561C12.1162 8.3612 12.481 8.95685 12.481 9.60745V9.73158C12.481 9.83601 12.4726 9.94028 12.4557 10.0434L11.8236 13.9121L11.6514 14.9829C11.5529 15.5952 11.6276 16.2413 12.0318 16.7117C12.7282 17.5222 13.9355 18.3347 15.5 17.9358C20.5 15.5 19.9322 9.88849 18.3981 7.87667C17.7406 6.759 15.2423 4.52364 10.5087 4.52364C5.77501 4.52364 4.71915 8.48818 4.5 10.5C4.5 11.3941 4.19712 13.778 5.24905 15.924C6.30097 18.0699 4.37226 18.1593 3.27642 17.9358C2.18066 17.4887 0.252133 14.9851 1.30406 8.54728C2.35598 2.10946 8.75546 1 11.8236 1C15.5491 1.22354 23 3.31655 23 11.9003C23 20.0744 16.2433 21.3378 12.3812 21.0537C12.0105 21.0264 11.6553 20.9102 11.3273 20.7353L9.85094 19.9476C9.63179 21.0653 8.9305 23.8371 7.87855 25.9831C6.56395 27.3243 4.37214 25.7595 4.59129 24.6418Z" stroke="#383838" stroke-width="2"/>
</svg>
