<svg width="31" height="26" viewBox="0 0 31 26" fill="none" xmlns="http://www.w3.org/2000/svg">
<path d="M29.1303 1.17578C27.9058 2.04428 26.5501 3.013 25.1153 3.44745C24.3453 2.55707 23.3218 1.926 22.1834 1.63957C21.045 1.35315 19.8467 1.4252 18.7503 1.84597C17.654 2.26675 16.7126 3.01595 16.0535 3.99225C15.3944 4.96854 15.0494 6.12483 15.0651 7.30473V8.59049C12.8181 8.64908 10.5915 8.14795 8.58368 7.13172C6.57586 6.1155 4.84914 4.61573 3.5573 2.76599C3.5573 2.76599 -1.5573 14.3378 9.95055 19.4809C7.3172 21.2783 4.1802 22.1796 1 22.0524C12.5078 28.4812 26.573 22.0524 26.573 7.26615C26.5718 6.90801 26.5376 6.55075 26.4707 6.19897C27.7757 4.90485 28.6966 3.27093 29.1303 1.48023V1.17578Z" stroke="#383838" stroke-width="2" stroke-linecap="round" stroke-linejoin="round"/>
</svg>
