<svg width="32" height="24" viewBox="0 0 32 24" fill="none" xmlns="http://www.w3.org/2000/svg">
<path d="M29.5071 4.70094C29.3499 4.06937 29.0297 3.4907 28.5789 3.02338C28.1282 2.55606 27.5627 2.21663 26.9397 2.03939C24.6634 1.48047 15.5583 1.48047 15.5583 1.48047C15.5583 1.48047 6.45323 1.48047 4.17695 2.09263C3.55395 2.26986 2.9885 2.60929 2.5377 3.07661C2.0869 3.54393 1.76673 4.1226 1.60953 4.75418C1.19294 7.07712 0.989158 9.43359 1.00076 11.794C0.985907 14.1721 1.1897 16.5466 1.60953 18.887C1.78284 19.499 2.11018 20.0556 2.55993 20.5032C3.00968 20.9508 3.56662 21.2742 4.17695 21.4421C6.45323 22.0543 15.5583 22.0542 15.5583 22.0542C15.5583 22.0542 24.6634 22.0543 26.9397 21.4421C27.5627 21.2649 28.1282 20.9254 28.5789 20.4581C29.0297 19.9908 29.3499 19.4121 29.5071 18.7805C29.9205 16.4751 30.1243 14.1366 30.1159 11.794C30.1307 9.41582 29.927 7.04138 29.5071 4.70094V4.70094Z" stroke="#383838" stroke-width="2" stroke-linecap="round" stroke-linejoin="round"/>
<path d="M12.5805 16.1447L20.1902 11.793L12.5805 7.44141V16.1447Z" stroke="#383838" stroke-width="2" stroke-linecap="round" stroke-linejoin="round"/>
</svg>
